<mxfile host="app.diagrams.net" modified="2022-09-03T13:31:32.363Z" agent="5.0 (Windows NT 10.0; Win64; x64) AppleWebKit/537.36 (KHTML, like Gecko) Chrome/104.0.0.0 Safari/537.36" etag="Nl6IUPlKpdgs8xDLO-OU" version="20.2.3" type="github">
  <diagram id="U8BcehqfCQ5fHHpQag8J" name="Halaman-1">
    <mxGraphModel dx="1900" dy="748" grid="1" gridSize="10" guides="1" tooltips="1" connect="1" arrows="1" fold="1" page="1" pageScale="1" pageWidth="1200" pageHeight="1600" math="0" shadow="0">
      <root>
        <mxCell id="0" />
        <mxCell id="1" parent="0" />
        <mxCell id="eh8A_PbFE7kdD30FCSDU-5" value="Content" style="swimlane;fontStyle=0;childLayout=stackLayout;horizontal=1;startSize=26;horizontalStack=0;resizeParent=1;resizeParentMax=0;resizeLast=0;collapsible=1;marginBottom=0;align=center;fontSize=14;" vertex="1" parent="1">
          <mxGeometry x="400" y="240" width="160" height="266" as="geometry" />
        </mxCell>
        <mxCell id="eh8A_PbFE7kdD30FCSDU-6" value="Title" style="text;strokeColor=#990000;fillColor=none;spacingLeft=4;spacingRight=4;overflow=hidden;rotatable=0;points=[[0,0.5],[1,0.5]];portConstraint=eastwest;fontSize=12;" vertex="1" parent="eh8A_PbFE7kdD30FCSDU-5">
          <mxGeometry y="26" width="160" height="30" as="geometry" />
        </mxCell>
        <mxCell id="eh8A_PbFE7kdD30FCSDU-12" value="Price" style="text;strokeColor=#990000;fillColor=none;spacingLeft=4;spacingRight=4;overflow=hidden;rotatable=0;points=[[0,0.5],[1,0.5]];portConstraint=eastwest;fontSize=12;" vertex="1" parent="eh8A_PbFE7kdD30FCSDU-5">
          <mxGeometry y="56" width="160" height="30" as="geometry" />
        </mxCell>
        <mxCell id="eh8A_PbFE7kdD30FCSDU-7" value="Description" style="text;strokeColor=#990000;fillColor=none;spacingLeft=4;spacingRight=4;overflow=hidden;rotatable=0;points=[[0,0.5],[1,0.5]];portConstraint=eastwest;fontSize=12;" vertex="1" parent="eh8A_PbFE7kdD30FCSDU-5">
          <mxGeometry y="86" width="160" height="30" as="geometry" />
        </mxCell>
        <mxCell id="eh8A_PbFE7kdD30FCSDU-14" value="Category" style="text;strokeColor=#990000;fillColor=none;spacingLeft=4;spacingRight=4;overflow=hidden;rotatable=0;points=[[0,0.5],[1,0.5]];portConstraint=eastwest;fontSize=12;" vertex="1" parent="eh8A_PbFE7kdD30FCSDU-5">
          <mxGeometry y="116" width="160" height="30" as="geometry" />
        </mxCell>
        <mxCell id="eh8A_PbFE7kdD30FCSDU-61" value="Location" style="text;strokeColor=#990000;fillColor=none;spacingLeft=4;spacingRight=4;overflow=hidden;rotatable=0;points=[[0,0.5],[1,0.5]];portConstraint=eastwest;fontSize=12;" vertex="1" parent="eh8A_PbFE7kdD30FCSDU-5">
          <mxGeometry y="146" width="160" height="30" as="geometry" />
        </mxCell>
        <mxCell id="eh8A_PbFE7kdD30FCSDU-13" value="Specification" style="text;strokeColor=#990000;fillColor=none;spacingLeft=4;spacingRight=4;overflow=hidden;rotatable=0;points=[[0,0.5],[1,0.5]];portConstraint=eastwest;fontSize=12;" vertex="1" parent="eh8A_PbFE7kdD30FCSDU-5">
          <mxGeometry y="176" width="160" height="30" as="geometry" />
        </mxCell>
        <mxCell id="eh8A_PbFE7kdD30FCSDU-34" value="Fasilitas" style="text;strokeColor=#990000;fillColor=none;spacingLeft=4;spacingRight=4;overflow=hidden;rotatable=0;points=[[0,0.5],[1,0.5]];portConstraint=eastwest;fontSize=12;" vertex="1" parent="eh8A_PbFE7kdD30FCSDU-5">
          <mxGeometry y="206" width="160" height="30" as="geometry" />
        </mxCell>
        <mxCell id="eh8A_PbFE7kdD30FCSDU-52" value="user" style="text;strokeColor=#990000;fillColor=none;spacingLeft=4;spacingRight=4;overflow=hidden;rotatable=0;points=[[0,0.5],[1,0.5]];portConstraint=eastwest;fontSize=12;" vertex="1" parent="eh8A_PbFE7kdD30FCSDU-5">
          <mxGeometry y="236" width="160" height="30" as="geometry" />
        </mxCell>
        <mxCell id="eh8A_PbFE7kdD30FCSDU-17" value="Spec Rumah" style="swimlane;fontStyle=0;childLayout=stackLayout;horizontal=1;startSize=26;horizontalStack=0;resizeParent=1;resizeParentMax=0;resizeLast=0;collapsible=1;marginBottom=0;align=center;fontSize=14;" vertex="1" parent="1">
          <mxGeometry x="660" y="510" width="160" height="356" as="geometry" />
        </mxCell>
        <mxCell id="eh8A_PbFE7kdD30FCSDU-18" value="Kamar Tidur" style="text;strokeColor=#990000;fillColor=none;spacingLeft=4;spacingRight=4;overflow=hidden;rotatable=0;points=[[0,0.5],[1,0.5]];portConstraint=eastwest;fontSize=12;" vertex="1" parent="eh8A_PbFE7kdD30FCSDU-17">
          <mxGeometry y="26" width="160" height="30" as="geometry" />
        </mxCell>
        <mxCell id="eh8A_PbFE7kdD30FCSDU-19" value="Kamar Mandi" style="text;strokeColor=#990000;fillColor=none;spacingLeft=4;spacingRight=4;overflow=hidden;rotatable=0;points=[[0,0.5],[1,0.5]];portConstraint=eastwest;fontSize=12;" vertex="1" parent="eh8A_PbFE7kdD30FCSDU-17">
          <mxGeometry y="56" width="160" height="30" as="geometry" />
        </mxCell>
        <mxCell id="eh8A_PbFE7kdD30FCSDU-21" value="Luas Tanah (rumah only)" style="text;strokeColor=#990000;fillColor=none;spacingLeft=4;spacingRight=4;overflow=hidden;rotatable=0;points=[[0,0.5],[1,0.5]];portConstraint=eastwest;fontSize=12;" vertex="1" parent="eh8A_PbFE7kdD30FCSDU-17">
          <mxGeometry y="86" width="160" height="30" as="geometry" />
        </mxCell>
        <mxCell id="eh8A_PbFE7kdD30FCSDU-25" value="Luas Bangunan" style="text;strokeColor=#990000;fillColor=none;spacingLeft=4;spacingRight=4;overflow=hidden;rotatable=0;points=[[0,0.5],[1,0.5]];portConstraint=eastwest;fontSize=12;" vertex="1" parent="eh8A_PbFE7kdD30FCSDU-17">
          <mxGeometry y="116" width="160" height="30" as="geometry" />
        </mxCell>
        <mxCell id="eh8A_PbFE7kdD30FCSDU-28" value="Sertifikat" style="text;strokeColor=#990000;fillColor=none;spacingLeft=4;spacingRight=4;overflow=hidden;rotatable=0;points=[[0,0.5],[1,0.5]];portConstraint=eastwest;fontSize=12;" vertex="1" parent="eh8A_PbFE7kdD30FCSDU-17">
          <mxGeometry y="146" width="160" height="30" as="geometry" />
        </mxCell>
        <mxCell id="eh8A_PbFE7kdD30FCSDU-27" value="Tipe Property" style="text;strokeColor=#990000;fillColor=none;spacingLeft=4;spacingRight=4;overflow=hidden;rotatable=0;points=[[0,0.5],[1,0.5]];portConstraint=eastwest;fontSize=12;" vertex="1" parent="eh8A_PbFE7kdD30FCSDU-17">
          <mxGeometry y="176" width="160" height="30" as="geometry" />
        </mxCell>
        <mxCell id="eh8A_PbFE7kdD30FCSDU-30" value="Jumlah Lantai" style="text;strokeColor=#990000;fillColor=none;spacingLeft=4;spacingRight=4;overflow=hidden;rotatable=0;points=[[0,0.5],[1,0.5]];portConstraint=eastwest;fontSize=12;" vertex="1" parent="eh8A_PbFE7kdD30FCSDU-17">
          <mxGeometry y="206" width="160" height="30" as="geometry" />
        </mxCell>
        <mxCell id="eh8A_PbFE7kdD30FCSDU-26" value="cartport" style="text;strokeColor=#006600;fillColor=none;spacingLeft=4;spacingRight=4;overflow=hidden;rotatable=0;points=[[0,0.5],[1,0.5]];portConstraint=eastwest;fontSize=12;" vertex="1" parent="eh8A_PbFE7kdD30FCSDU-17">
          <mxGeometry y="236" width="160" height="30" as="geometry" />
        </mxCell>
        <mxCell id="eh8A_PbFE7kdD30FCSDU-29" value="Daya Listrik" style="text;strokeColor=#006600;fillColor=none;spacingLeft=4;spacingRight=4;overflow=hidden;rotatable=0;points=[[0,0.5],[1,0.5]];portConstraint=eastwest;fontSize=12;" vertex="1" parent="eh8A_PbFE7kdD30FCSDU-17">
          <mxGeometry y="266" width="160" height="30" as="geometry" />
        </mxCell>
        <mxCell id="eh8A_PbFE7kdD30FCSDU-31" value="Tahun Dibangun" style="text;strokeColor=#006600;fillColor=none;spacingLeft=4;spacingRight=4;overflow=hidden;rotatable=0;points=[[0,0.5],[1,0.5]];portConstraint=eastwest;fontSize=12;" vertex="1" parent="eh8A_PbFE7kdD30FCSDU-17">
          <mxGeometry y="296" width="160" height="30" as="geometry" />
        </mxCell>
        <mxCell id="eh8A_PbFE7kdD30FCSDU-32" value="Hadap" style="text;strokeColor=#006600;fillColor=none;spacingLeft=4;spacingRight=4;overflow=hidden;rotatable=0;points=[[0,0.5],[1,0.5]];portConstraint=eastwest;fontSize=12;" vertex="1" parent="eh8A_PbFE7kdD30FCSDU-17">
          <mxGeometry y="326" width="160" height="30" as="geometry" />
        </mxCell>
        <mxCell id="eh8A_PbFE7kdD30FCSDU-20" style="rounded=0;orthogonalLoop=1;jettySize=auto;html=1;entryX=-0.002;entryY=0.09;entryDx=0;entryDy=0;exitX=1;exitY=0.5;exitDx=0;exitDy=0;edgeStyle=orthogonalEdgeStyle;entryPerimeter=0;" edge="1" parent="1" source="eh8A_PbFE7kdD30FCSDU-13" target="eh8A_PbFE7kdD30FCSDU-18">
          <mxGeometry relative="1" as="geometry" />
        </mxCell>
        <mxCell id="eh8A_PbFE7kdD30FCSDU-53" value="User" style="swimlane;fontStyle=0;childLayout=stackLayout;horizontal=1;startSize=26;horizontalStack=0;resizeParent=1;resizeParentMax=0;resizeLast=0;collapsible=1;marginBottom=0;align=center;fontSize=14;" vertex="1" parent="1">
          <mxGeometry x="200" y="240" width="160" height="206" as="geometry" />
        </mxCell>
        <mxCell id="eh8A_PbFE7kdD30FCSDU-54" value="Name" style="text;strokeColor=#990000;fillColor=none;spacingLeft=4;spacingRight=4;overflow=hidden;rotatable=0;points=[[0,0.5],[1,0.5]];portConstraint=eastwest;fontSize=12;" vertex="1" parent="eh8A_PbFE7kdD30FCSDU-53">
          <mxGeometry y="26" width="160" height="30" as="geometry" />
        </mxCell>
        <mxCell id="eh8A_PbFE7kdD30FCSDU-55" value="Phone Number" style="text;strokeColor=#990000;fillColor=none;spacingLeft=4;spacingRight=4;overflow=hidden;rotatable=0;points=[[0,0.5],[1,0.5]];portConstraint=eastwest;fontSize=12;" vertex="1" parent="eh8A_PbFE7kdD30FCSDU-53">
          <mxGeometry y="56" width="160" height="30" as="geometry" />
        </mxCell>
        <mxCell id="eh8A_PbFE7kdD30FCSDU-56" value="Photo Profile" style="text;strokeColor=#990000;fillColor=none;spacingLeft=4;spacingRight=4;overflow=hidden;rotatable=0;points=[[0,0.5],[1,0.5]];portConstraint=eastwest;fontSize=12;" vertex="1" parent="eh8A_PbFE7kdD30FCSDU-53">
          <mxGeometry y="86" width="160" height="30" as="geometry" />
        </mxCell>
        <mxCell id="eh8A_PbFE7kdD30FCSDU-57" value="Property Agent" style="text;strokeColor=#990000;fillColor=none;spacingLeft=4;spacingRight=4;overflow=hidden;rotatable=0;points=[[0,0.5],[1,0.5]];portConstraint=eastwest;fontSize=12;" vertex="1" parent="eh8A_PbFE7kdD30FCSDU-53">
          <mxGeometry y="116" width="160" height="30" as="geometry" />
        </mxCell>
        <mxCell id="eh8A_PbFE7kdD30FCSDU-59" value="About Me" style="text;strokeColor=#990000;fillColor=none;spacingLeft=4;spacingRight=4;overflow=hidden;rotatable=0;points=[[0,0.5],[1,0.5]];portConstraint=eastwest;fontSize=12;" vertex="1" parent="eh8A_PbFE7kdD30FCSDU-53">
          <mxGeometry y="146" width="160" height="30" as="geometry" />
        </mxCell>
        <mxCell id="eh8A_PbFE7kdD30FCSDU-80" value="About Me" style="text;strokeColor=#990000;fillColor=none;spacingLeft=4;spacingRight=4;overflow=hidden;rotatable=0;points=[[0,0.5],[1,0.5]];portConstraint=eastwest;fontSize=12;" vertex="1" parent="eh8A_PbFE7kdD30FCSDU-53">
          <mxGeometry y="176" width="160" height="30" as="geometry" />
        </mxCell>
        <mxCell id="eh8A_PbFE7kdD30FCSDU-62" value="Location" style="swimlane;fontStyle=0;childLayout=stackLayout;horizontal=1;startSize=26;horizontalStack=0;resizeParent=1;resizeParentMax=0;resizeLast=0;collapsible=1;marginBottom=0;align=center;fontSize=14;" vertex="1" parent="1">
          <mxGeometry x="660" y="240" width="160" height="116" as="geometry" />
        </mxCell>
        <mxCell id="eh8A_PbFE7kdD30FCSDU-63" value="Kota" style="text;strokeColor=#990000;fillColor=none;spacingLeft=4;spacingRight=4;overflow=hidden;rotatable=0;points=[[0,0.5],[1,0.5]];portConstraint=eastwest;fontSize=12;" vertex="1" parent="eh8A_PbFE7kdD30FCSDU-62">
          <mxGeometry y="26" width="160" height="30" as="geometry" />
        </mxCell>
        <mxCell id="eh8A_PbFE7kdD30FCSDU-64" value="Kecamatan" style="text;strokeColor=#990000;fillColor=none;spacingLeft=4;spacingRight=4;overflow=hidden;rotatable=0;points=[[0,0.5],[1,0.5]];portConstraint=eastwest;fontSize=12;" vertex="1" parent="eh8A_PbFE7kdD30FCSDU-62">
          <mxGeometry y="56" width="160" height="30" as="geometry" />
        </mxCell>
        <mxCell id="eh8A_PbFE7kdD30FCSDU-70" value="Maps" style="text;strokeColor=#990000;fillColor=none;spacingLeft=4;spacingRight=4;overflow=hidden;rotatable=0;points=[[0,0.5],[1,0.5]];portConstraint=eastwest;fontSize=12;" vertex="1" parent="eh8A_PbFE7kdD30FCSDU-62">
          <mxGeometry y="86" width="160" height="30" as="geometry" />
        </mxCell>
        <mxCell id="eh8A_PbFE7kdD30FCSDU-71" style="edgeStyle=orthogonalEdgeStyle;rounded=0;orthogonalLoop=1;jettySize=auto;html=1;entryX=0;entryY=0.25;entryDx=0;entryDy=0;" edge="1" parent="1" source="eh8A_PbFE7kdD30FCSDU-61" target="eh8A_PbFE7kdD30FCSDU-62">
          <mxGeometry relative="1" as="geometry" />
        </mxCell>
        <mxCell id="eh8A_PbFE7kdD30FCSDU-72" value="About Me" style="swimlane;fontStyle=0;childLayout=stackLayout;horizontal=1;startSize=26;horizontalStack=0;resizeParent=1;resizeParentMax=0;resizeLast=0;collapsible=1;marginBottom=0;align=center;fontSize=14;" vertex="1" parent="1">
          <mxGeometry x="-70" y="240" width="160" height="176" as="geometry" />
        </mxCell>
        <mxCell id="eh8A_PbFE7kdD30FCSDU-73" value="Description" style="text;strokeColor=#990000;fillColor=none;spacingLeft=4;spacingRight=4;overflow=hidden;rotatable=0;points=[[0,0.5],[1,0.5]];portConstraint=eastwest;fontSize=12;" vertex="1" parent="eh8A_PbFE7kdD30FCSDU-72">
          <mxGeometry y="26" width="160" height="30" as="geometry" />
        </mxCell>
        <mxCell id="eh8A_PbFE7kdD30FCSDU-74" value="Area Specialis" style="text;strokeColor=#990000;fillColor=none;spacingLeft=4;spacingRight=4;overflow=hidden;rotatable=0;points=[[0,0.5],[1,0.5]];portConstraint=eastwest;fontSize=12;" vertex="1" parent="eh8A_PbFE7kdD30FCSDU-72">
          <mxGeometry y="56" width="160" height="30" as="geometry" />
        </mxCell>
        <mxCell id="eh8A_PbFE7kdD30FCSDU-75" value="Specialis Properti" style="text;strokeColor=#990000;fillColor=none;spacingLeft=4;spacingRight=4;overflow=hidden;rotatable=0;points=[[0,0.5],[1,0.5]];portConstraint=eastwest;fontSize=12;" vertex="1" parent="eh8A_PbFE7kdD30FCSDU-72">
          <mxGeometry y="86" width="160" height="30" as="geometry" />
        </mxCell>
        <mxCell id="eh8A_PbFE7kdD30FCSDU-76" value="bahasa" style="text;strokeColor=#990000;fillColor=none;spacingLeft=4;spacingRight=4;overflow=hidden;rotatable=0;points=[[0,0.5],[1,0.5]];portConstraint=eastwest;fontSize=12;" vertex="1" parent="eh8A_PbFE7kdD30FCSDU-72">
          <mxGeometry y="116" width="160" height="30" as="geometry" />
        </mxCell>
        <mxCell id="eh8A_PbFE7kdD30FCSDU-77" value="Alamat" style="text;strokeColor=#990000;fillColor=none;spacingLeft=4;spacingRight=4;overflow=hidden;rotatable=0;points=[[0,0.5],[1,0.5]];portConstraint=eastwest;fontSize=12;" vertex="1" parent="eh8A_PbFE7kdD30FCSDU-72">
          <mxGeometry y="146" width="160" height="30" as="geometry" />
        </mxCell>
        <mxCell id="eh8A_PbFE7kdD30FCSDU-89" style="edgeStyle=orthogonalEdgeStyle;rounded=0;orthogonalLoop=1;jettySize=auto;html=1;entryX=1.025;entryY=-0.067;entryDx=0;entryDy=0;entryPerimeter=0;" edge="1" parent="1" source="eh8A_PbFE7kdD30FCSDU-59" target="eh8A_PbFE7kdD30FCSDU-73">
          <mxGeometry relative="1" as="geometry" />
        </mxCell>
      </root>
    </mxGraphModel>
  </diagram>
</mxfile>
